<svg width="98" height="98" viewBox="0 0 98 98" fill="none" xmlns="http://www.w3.org/2000/svg">
<path d="M49.0001 8.16797C26.5417 8.16797 8.16675 26.543 8.16675 49.0013C8.16675 71.4596 26.5417 89.8346 49.0001 89.8346C71.4584 89.8346 89.8334 71.4596 89.8334 49.0013C89.8334 26.543 71.4584 8.16797 49.0001 8.16797ZM49.0001 81.668C30.9926 81.668 16.3334 67.0088 16.3334 49.0013C16.3334 30.9938 30.9926 16.3346 49.0001 16.3346C67.0076 16.3346 81.6667 30.9938 81.6667 49.0013C81.6667 67.0088 67.0076 81.668 49.0001 81.668ZM67.7426 30.953L40.8334 57.8621L30.2576 47.3271L24.5001 53.0846L40.8334 69.418L73.5001 36.7513L67.7426 30.953Z" fill="#A06056"/>
</svg>
