<svg width="33" height="33" viewBox="0 0 33 33" fill="none" xmlns="http://www.w3.org/2000/svg">
<g clip-path="url(#clip0_78_746)">
<path d="M13.6641 9.54688V11.2369H32.6466C32.6201 10.6919 32.5631 10.0029 32.3591 9.54688" fill="#EC1C24"/>
<path d="M31.4641 7.85938H13.6641V9.54938H32.3591C32.1561 8.91887 31.8541 8.34387 31.4641 7.85938Z" fill="#E6E7E8"/>
<path d="M27.6641 6.16797H13.6641V7.85797H31.4641C30.6296 6.81297 29.2561 6.16797 27.6641 6.16797Z" fill="#EC1C24"/>
<path d="M32.6466 11.2383H13.6641V12.9283H32.6641V11.8018C32.6641 11.7013 32.6576 11.6033 32.6546 11.5048C32.6526 11.4778 32.6496 11.4083 32.6466 11.2383Z" fill="#E6E7E8"/>
<path d="M13.6641 14.6197H32.6641V12.9297H13.6641V14.6197Z" fill="#EC1C24"/>
<path d="M13.6641 16.3072H32.6641V14.6172H13.6641V16.3072Z" fill="#E6E7E8"/>
<path d="M13.6641 16.3086H32.6641V17.9986H13.6641V16.3086Z" fill="#EC1C24"/>
<path d="M0.664062 18V19.69H32.6641V18H13.6641H0.664062Z" fill="#E6E7E8"/>
<path d="M0.664062 19.6875H32.6641V21.3775H0.664062V19.6875Z" fill="#EC1C24"/>
<path d="M0.666562 22.4145C0.666562 22.4145 0.662062 22.824 0.674062 23.065H32.6541C32.6681 22.818 32.6616 22.4145 32.6616 22.4145L32.6641 21.375H0.664062L0.666562 22.4145Z" fill="#E6E7E8"/>
<path d="M5.67094 28.1653H27.6709C29.2674 28.1653 30.5944 27.5853 31.5009 26.4453H1.83594C2.77194 27.6103 4.12394 28.1653 5.66844 28.1653" fill="#EC1C24"/>
<path d="M1.83375 26.4478H31.4988C31.8942 25.9453 32.1896 25.3716 32.3687 24.7578H0.96875C1.1513 25.3698 1.44541 25.9428 1.83625 26.4478" fill="#E6E7E8"/>
<path d="M0.969688 24.7603H32.3697C32.5334 24.2106 32.6308 23.6432 32.6597 23.0703H0.679688C0.729188 23.6483 0.775188 24.0848 0.969688 24.7603Z" fill="#EC1C24"/>
<path d="M13.6641 6.16797H5.66406C2.35056 6.16797 0.664062 8.63047 0.664062 11.668V17.998H13.6641V6.16797Z" fill="#176496"/>
<path d="M2.067 9.15634L2.339 8.94734L2.6105 9.15634L2.505 8.82034L2.7755 8.61484H2.4415L2.338 8.27734L2.235 8.61484H1.9015L2.173 8.82034L2.067 9.15634ZM3.864 9.15634L4.136 8.94734L4.4075 9.15634L4.3025 8.82034L4.5725 8.61484H4.239L4.1355 8.27734L4.0325 8.61484H3.698L3.9695 8.82034L3.864 9.15634ZM5.8465 9.15634L6.118 8.94734L6.39 9.15634L6.2845 8.82034L6.5545 8.61484H6.223L6.118 8.27734L6.0145 8.61484H5.683L5.9515 8.82034L5.8465 9.15634ZM7.8145 9.15634L8.086 8.94734L8.358 9.15634L8.253 8.82034L8.523 8.61484H8.188L8.086 8.27734L7.983 8.61484H7.649L7.92 8.82034L7.8145 9.15634ZM9.7895 9.15634L10.0615 8.94734L10.333 9.15634L10.228 8.82034L10.4985 8.61484H10.164L10.061 8.27734L9.958 8.61484H9.6245L9.8945 8.82034L9.7895 9.15634ZM3.0235 10.0338L3.295 9.82534L3.5665 10.0338L3.462 9.69834L3.732 9.49284H3.398L3.2945 9.15584L3.193 9.49284H2.858L3.1285 9.69834L3.0235 10.0338ZM4.821 10.0338L5.0925 9.82534L5.364 10.0338L5.259 9.69834L5.529 9.49284H5.193L5.0925 9.15584L4.989 9.49284H4.6555L4.926 9.69834L4.821 10.0338ZM6.8035 10.0338L7.0745 9.82534L7.346 10.0338L7.241 9.69834L7.5115 9.49284H7.178L7.0745 9.15584L6.971 9.49284H6.637L6.9075 9.69834L6.8035 10.0338ZM8.7705 10.0338L9.0425 9.82534L9.3145 10.0338L9.208 9.69834L9.479 9.49284H9.1455L9.042 9.15584L8.9395 9.49284H8.6055L8.876 9.69834L8.7705 10.0338ZM10.748 10.0338L11.0175 9.82534L11.289 10.0338L11.183 9.69834L11.454 9.49284H11.121L11.017 9.15584L10.9145 9.49284H10.5805L10.851 9.69834L10.748 10.0338ZM11.8615 9.15634L12.133 8.94734L12.405 9.15634L12.2995 8.82034L12.5695 8.61484H12.238L12.1325 8.27734L12.0295 8.61484H11.693L11.9665 8.82034L11.8615 9.15634ZM2.0405 16.1783L2.3125 15.9718L2.584 16.1783L2.479 15.8453L2.749 15.6393L2.4155 15.6403L2.3115 15.3033L2.2095 15.6403L1.875 15.6393L2.1455 15.8453L2.0405 16.1783ZM3.838 16.1783L4.1095 15.9718L4.3815 16.1783L4.276 15.8453L4.546 15.6393L4.213 15.6403L4.109 15.3033L4.0065 15.6403L3.673 15.6393L3.943 15.8453L3.838 16.1783ZM5.8205 16.1783L6.092 15.9718L6.364 16.1783L6.2585 15.8453L6.5285 15.6393L6.193 15.6403L6.0915 15.3033L5.9885 15.6403L5.655 15.6393L5.9255 15.8453L5.8205 16.1783ZM7.7885 16.1783L8.06 15.9718L8.3315 16.1783L8.228 15.8453L8.4965 15.6393L8.1625 15.6403L8.0595 15.3033L7.9565 15.6403L7.623 15.6393L7.893 15.8453L7.7885 16.1783ZM9.763 16.1783L10.035 15.9718L10.307 16.1783L10.203 15.8453L10.4715 15.6393L10.138 15.6403L10.0345 15.3033L9.932 15.6403L9.598 15.6393L9.868 15.8453L9.763 16.1783ZM11.835 16.1783L12.1065 15.9718L12.3785 16.1783L12.273 15.8453L12.5435 15.6393L12.208 15.6403L12.106 15.3033L12.003 15.6403L11.668 15.6393L11.94 15.8453L11.835 16.1783ZM2.067 10.9123L2.339 10.7033L2.6105 10.9123L2.505 10.5763L2.7755 10.3708L2.4415 10.3718L2.338 10.0338L2.235 10.3718L1.9015 10.3708L2.173 10.5763L2.067 10.9123ZM3.864 10.9123L4.136 10.7033L4.4075 10.9123L4.3025 10.5763L4.5725 10.3708L4.239 10.3718L4.1355 10.0338L4.0325 10.3718L3.698 10.3708L3.9695 10.5763L3.864 10.9123ZM5.8465 10.9123L6.118 10.7033L6.39 10.9123L6.2845 10.5763L6.5545 10.3708L6.223 10.3718L6.118 10.0338L6.0145 10.3718L5.683 10.3708L5.9515 10.5763L5.8465 10.9123ZM7.8145 10.9123L8.086 10.7033L8.358 10.9123L8.253 10.5763L8.523 10.3708L8.188 10.3718L8.086 10.0338L7.983 10.3718L7.649 10.3708L7.92 10.5763L7.8145 10.9123ZM9.7895 10.9123L10.0615 10.7033L10.333 10.9123L10.228 10.5763L10.4985 10.3708L10.164 10.3718L10.061 10.0338L9.958 10.3718L9.6245 10.3708L9.8945 10.5763L9.7895 10.9123ZM3.0235 11.7903L3.295 11.5818L3.5665 11.7903L3.462 11.4548L3.732 11.2483H3.398L3.2945 10.9123L3.193 11.2483H2.858L3.1285 11.4548L3.0235 11.7903ZM4.821 11.7903L5.0925 11.5818L5.364 11.7903L5.259 11.4548L5.529 11.2483H5.193L5.0925 10.9123L4.989 11.2483H4.6555L4.926 11.4548L4.821 11.7903ZM6.8035 11.7903L7.0745 11.5818L7.346 11.7903L7.241 11.4548L7.5115 11.2483H7.178L7.0745 10.9123L6.971 11.2483H6.637L6.9075 11.4548L6.8035 11.7903ZM8.7705 11.7903L9.0425 11.5818L9.3145 11.7903L9.208 11.4548L9.479 11.2483H9.1455L9.042 10.9123L8.9395 11.2483H8.6055L8.876 11.4548L8.7705 11.7903ZM10.748 11.7903L11.0175 11.5818L11.289 11.7903L11.183 11.4548L11.454 11.2483H11.121L11.017 10.9123L10.9145 11.2483H10.5805L10.851 11.4548L10.748 11.7903ZM11.8615 10.9123L12.133 10.7033L12.405 10.9123L12.2995 10.5763L12.5695 10.3708L12.238 10.3718L12.1325 10.0338L12.0295 10.3718L11.693 10.3708L11.9665 10.5763L11.8615 10.9123ZM2.0405 12.6683L2.3125 12.4598L2.584 12.6683L2.4785 12.3333L2.749 12.1273L2.415 12.1283L2.3115 11.7903L2.2095 12.1283L1.875 12.1273L2.1455 12.3333L2.0405 12.6683ZM3.838 12.6683L4.1095 12.4598L4.3815 12.6683L4.276 12.3333L4.546 12.1273L4.213 12.1283L4.109 11.7903L4.0065 12.1283L3.673 12.1273L3.9425 12.3333L3.838 12.6683ZM5.8205 12.6683L6.092 12.4598L6.3635 12.6683L6.2585 12.3333L6.5285 12.1273L6.193 12.1283L6.0915 11.7903L5.9885 12.1283L5.655 12.1273L5.9255 12.3333L5.8205 12.6683ZM7.7885 12.6683L8.0595 12.4598L8.3315 12.6683L8.228 12.3333L8.4965 12.1273L8.1625 12.1283L8.0595 11.7903L7.9565 12.1283L7.623 12.1273L7.893 12.3333L7.7885 12.6683ZM9.763 12.6683L10.035 12.4598L10.3065 12.6683L10.203 12.3333L10.4715 12.1273L10.1375 12.1283L10.0345 11.7903L9.932 12.1283L9.598 12.1273L9.868 12.3333L9.763 12.6683ZM2.997 13.5463L3.2685 13.3383L3.54 13.5463L3.4355 13.2133L3.705 13.0063H3.371L3.268 12.6683L3.1655 13.0063H2.8315L3.102 13.2133L2.997 13.5463ZM4.7945 13.5463L5.066 13.3383L5.3375 13.5463L5.2325 13.2133L5.5025 13.0063H5.168L5.0655 12.6683L4.9625 13.0063H4.6285L4.8995 13.2133L4.7945 13.5463ZM6.7775 13.5463L7.048 13.3383L7.32 13.5463L7.213 13.2133L7.485 13.0063H7.1515L7.048 12.6683L6.945 13.0063H6.611L6.8815 13.2133L6.7775 13.5463ZM8.743 13.5463L9.016 13.3383L9.288 13.5463L9.183 13.2133L9.4525 13.0063H9.119L9.0155 12.6683L8.913 13.0063H8.579L8.8495 13.2133L8.743 13.5463ZM10.718 13.5463L10.991 13.3383L11.263 13.5463L11.1575 13.2133L11.4285 13.0063H11.095L10.991 12.6683L10.888 13.0063H10.554L10.8245 13.2133L10.718 13.5463ZM11.835 12.6683L12.1065 12.4598L12.378 12.6683L12.273 12.3333L12.5435 12.1273L12.208 12.1283L12.106 11.7903L12.003 12.1283L11.668 12.1273L11.94 12.3333L11.835 12.6683ZM2.0405 14.4248L2.3125 14.2183L2.584 14.4248L2.4785 14.0893L2.749 13.8833L2.415 13.8843L2.3115 13.5463L2.2095 13.8843L1.875 13.8833L2.1455 14.0893L2.0405 14.4248ZM3.838 14.4248L4.1095 14.2183L4.3815 14.4248L4.276 14.0893L4.546 13.8833L4.213 13.8843L4.109 13.5463L4.0065 13.8843L3.673 13.8833L3.9425 14.0893L3.838 14.4248ZM5.8205 14.4248L6.092 14.2183L6.3635 14.4248L6.2585 14.0893L6.5285 13.8833L6.193 13.8843L6.0915 13.5463L5.9885 13.8843L5.655 13.8833L5.9255 14.0893L5.8205 14.4248ZM7.7885 14.4248L8.0595 14.2183L8.3315 14.4248L8.228 14.0893L8.4965 13.8833L8.1625 13.8843L8.0595 13.5463L7.9565 13.8843L7.623 13.8833L7.893 14.0893L7.7885 14.4248ZM9.763 14.4248L10.035 14.2183L10.3065 14.4248L10.203 14.0893L10.4715 13.8833L10.1375 13.8843L10.0345 13.5463L9.932 13.8843L9.598 13.8833L9.868 14.0893L9.763 14.4248ZM2.997 15.3033L3.2685 15.0943L3.54 15.3033L3.4355 14.9673L3.705 14.7633H3.371L3.268 14.4248L3.1655 14.7633H2.8315L3.102 14.9673L2.997 15.3033ZM4.7945 15.3033L5.066 15.0943L5.3375 15.3033L5.2325 14.9673L5.5025 14.7633H5.168L5.0655 14.4248L4.9625 14.7633H4.6285L4.8995 14.9673L4.7945 15.3033ZM6.7775 15.3033L7.048 15.0943L7.32 15.3033L7.213 14.9673L7.485 14.7633H7.1515L7.048 14.4248L6.945 14.7633H6.611L6.8815 14.9673L6.7775 15.3033ZM8.743 15.3033L9.016 15.0943L9.288 15.3033L9.183 14.9673L9.4525 14.7633H9.119L9.0155 14.4248L8.913 14.7633H8.579L8.8495 14.9673L8.743 15.3033ZM10.718 15.3033L10.991 15.0943L11.263 15.3033L11.1575 14.9673L11.4285 14.7633H11.095L10.991 14.4248L10.888 14.7633H10.554L10.8245 14.9673L10.718 15.3033ZM11.835 14.4248L12.1065 14.2183L12.378 14.4248L12.273 14.0893L12.5435 13.8833L12.208 13.8843L12.106 13.5463L12.003 13.8843L11.668 13.8833L11.94 14.0893L11.835 14.4248Z" fill="white"/>
</g>
<defs>
<clipPath id="clip0_78_746">
<rect width="32" height="32" fill="white" transform="translate(0.664062 0.667969)"/>
</clipPath>
</defs>
</svg>
