<svg width="33" height="33" viewBox="0 0 33 33" fill="none" xmlns="http://www.w3.org/2000/svg">
<path fill-rule="evenodd" clip-rule="evenodd" d="M22.0053 12.6693C22.0053 14.0838 21.4434 15.4403 20.4432 16.4405C19.443 17.4407 18.0864 18.0026 16.672 18.0026C15.2575 18.0026 13.9009 17.4407 12.9007 16.4405C11.9005 15.4403 11.3386 14.0838 11.3386 12.6693C11.3386 11.2548 11.9005 9.89823 12.9007 8.89803C13.9009 7.89784 15.2575 7.33594 16.672 7.33594C18.0864 7.33594 19.443 7.89784 20.4432 8.89803C21.4434 9.89823 22.0053 11.2548 22.0053 12.6693ZM19.3386 12.6693C19.3386 13.3765 19.0577 14.0548 18.5576 14.5549C18.0575 15.055 17.3792 15.3359 16.672 15.3359C15.9647 15.3359 15.2864 15.055 14.7863 14.5549C14.2862 14.0548 14.0053 13.3765 14.0053 12.6693C14.0053 11.962 14.2862 11.2837 14.7863 10.7837C15.2864 10.2836 15.9647 10.0026 16.672 10.0026C17.3792 10.0026 18.0575 10.2836 18.5576 10.7837C19.0577 11.2837 19.3386 11.962 19.3386 12.6693Z" fill="#263238"/>
<path fill-rule="evenodd" clip-rule="evenodd" d="M16.6694 2C8.56935 2 2.00269 8.56667 2.00269 16.6667C2.00269 24.7667 8.56935 31.3333 16.6694 31.3333C24.7694 31.3333 31.336 24.7667 31.336 16.6667C31.336 8.56667 24.7694 2 16.6694 2ZM4.66935 16.6667C4.66935 19.4533 5.62002 22.0187 7.21335 24.056C8.33233 22.5865 9.77589 21.3957 11.4313 20.5764C13.0866 19.7572 14.909 19.3317 16.756 19.3333C18.5791 19.3316 20.3786 19.746 22.0173 20.545C23.6559 21.3441 25.0906 22.5066 26.212 23.944C27.3673 22.4288 28.1451 20.6603 28.4812 18.7848C28.8173 16.9093 28.7019 14.9807 28.1447 13.1586C27.5874 11.3366 26.6043 9.6734 25.2767 8.30672C23.949 6.94004 22.315 5.90915 20.5099 5.29935C18.7047 4.68954 16.7803 4.51836 14.8958 4.79996C13.0114 5.08157 11.2211 5.80786 9.67304 6.91874C8.12501 8.02962 6.86377 9.49316 5.99366 11.1883C5.12355 12.8834 4.66959 14.7613 4.66935 16.6667ZM16.6694 28.6667C13.9146 28.6708 11.243 27.7231 9.10669 25.984C9.96659 24.753 11.1111 23.7479 12.4429 23.0542C13.7747 22.3606 15.2544 21.9989 16.756 22C18.2389 21.9988 19.7007 22.3514 21.0199 23.0286C22.3392 23.7057 23.4778 24.6878 24.3414 25.8933C22.1884 27.6889 19.4728 28.6706 16.6694 28.6667Z" fill="#263238"/>
</svg>
